<svg xmlns="http://www.w3.org/2000/svg" viewBox="0 0 57.08 61.41"><defs><style>.cls-1{fill:#858585;}.cls-2{fill:#fefefe;}.cls-3{fill:#004200;}.cls-4{fill:#00c002;}.cls-5{fill:#090;}.cls-6{fill:#51fc51;}.cls-7{fill:#007200;}</style></defs><title>fullscreen</title><g id="Layer_2" data-name="Layer 2"><g id="Layer_1-2" data-name="Layer 1"><rect class="cls-1" y="4.33" width="57.08" height="57.08" rx="14.04"/><rect class="cls-2" width="57.08" height="57.08" rx="14.04"/><rect class="cls-3" x="2.75" y="2.75" width="51.58" height="51.58" rx="11.29"/><path class="cls-4" d="M43,3.94h-29A10.11,10.11,0,0,0,3.93,14V43A10.12,10.12,0,0,0,14.05,53.15H43A10.11,10.11,0,0,0,53.15,43V14A10.11,10.11,0,0,0,43,3.94Z"/><path class="cls-5" d="M53.15,33.91V43A10.11,10.11,0,0,1,43,53.15h-29A10.12,10.12,0,0,1,3.93,43V35.27C15.91,37.5,32.91,43.53,53.15,33.91Z"/><path class="cls-6" d="M53.15,14v3.15A10.11,10.11,0,0,0,43,7.08h-29A10.12,10.12,0,0,0,3.93,17.19V14A10.11,10.11,0,0,1,14.05,3.94H43A10.11,10.11,0,0,1,53.15,14Z"/><path class="cls-7" d="M53.15,36.74V43A10.11,10.11,0,0,1,43,53.15h-29A10.12,10.12,0,0,1,3.93,43v-6.3A10.11,10.11,0,0,0,14.05,46.85H43A10.11,10.11,0,0,0,53.15,36.74Z"/><g id="g2846"><path id="path2842" class="cls-2" d="M26.62,39.22a2.31,2.31,0,0,1,0,2.88c-.68.78-.87.68-1.45.68h-10a2.77,2.77,0,0,1-1.64-1.64v-10a1.85,1.85,0,0,1,.68-1.35,2.2,2.2,0,0,1,2-.48,2.41,2.41,0,0,1,1.64,1.54v7.61h7.71a2.83,2.83,0,0,1,1.06.78Z"/><path id="path2843" class="cls-2" d="M31.53,42.68A2.29,2.29,0,0,1,30,39.89c.29-1.25.86-1.25,1.54-1.54h7.61V30.74a2.68,2.68,0,0,1,1.54-1.54c.77-.29,1.06,0,1.54,0s.87.77,1.16,1.25V41.14a2.64,2.64,0,0,1-1.45,1.45H31.53Z"/><g id="g2845"><path id="path2844" class="cls-2" d="M17.85,18.79V25a2.34,2.34,0,0,1-2.79,1.54,1.78,1.78,0,0,1-1.55-1.83V14.75a2.26,2.26,0,0,1,2-1.83h10A2.23,2.23,0,0,1,27,14.27a3.64,3.64,0,0,1,0,1.44,2.25,2.25,0,0,1-1.54,1.54H17.75V18.7h0Z"/><path id="path2845" class="cls-2" d="M39.23,24.86V17.25h-7.7a2.36,2.36,0,0,1-1.45-3,2.24,2.24,0,0,1,1.83-1.35H42a3.25,3.25,0,0,1,1.54,1.44V25.05a2.07,2.07,0,0,1-1.35,1.35,3.46,3.46,0,0,1-1.44,0,2.52,2.52,0,0,1-1.45-1.54h-.1Z"/></g></g></g></g></svg>