<svg xmlns="http://www.w3.org/2000/svg" viewBox="0 0 10.71 28.82"><title>Asset 51</title><g id="e271a4ce-20bb-46ac-acfe-96b407a15136" data-name="Layer 2"><g id="f1143ee9-c2b2-41d9-ac5d-49e617c5df70" data-name="Layer 1"><path d="M5.35,20.66s6.15.77,5.27-7.1S9.18,2.82,7.82,1.4A3.86,3.86,0,0,0,5.32,0h0A3.81,3.81,0,0,0,2.89,1.4C1.52,2.82,1,5.7.09,13.56S5.35,20.66,5.35,20.66Z" style="fill:#437035;fill-rule:evenodd"/><path d="M5.33,0h0A4.18,4.18,0,0,0,2.89,1.4C1.55,2.79,1,5.58.14,13.09H.5c2-.15,2.26-1.37,2.26-1.37a2.51,2.51,0,0,0,.75,2.12,2.36,2.36,0,0,0,3.68,0,2.52,2.52,0,0,0,.74-2.12s.31,1.22,2.26,1.37h.37C9.71,5.58,9.14,2.79,7.8,1.4A3.91,3.91,0,0,0,5.33,0Z" style="fill:#4e863e;fill-rule:evenodd"/><path d="M5.29,0a3.89,3.89,0,0,0-2.4,1.4c-.81.85-1.34,2.21-1.82,4.83a1.23,1.23,0,0,0,.87,0c1.24-.43,1.37-.81,1.37-.81a2.19,2.19,0,0,0,.4,1.85,2.11,2.11,0,0,0,1.41.59h0a2.22,2.22,0,0,0,1.76-.59,2.15,2.15,0,0,0,.4-1.85s.14.38,1.38.81a1.23,1.23,0,0,0,.87,0c-.48-2.62-1-4-1.82-4.83A3.93,3.93,0,0,0,5.3,0Z" style="fill:#589943;fill-rule:evenodd"/><path d="M6.68,20.61v7.82h0c0,.22-.59.39-1.33.39S4,28.65,4,28.43H4V20.61a5.28,5.28,0,0,0,1.33.05A5.29,5.29,0,0,0,6.68,20.61Z" style="fill:#c1a784;fill-rule:evenodd"/></g></g></svg>